<svg t="1606711236202" class="icon" viewBox="0 0 1024 1024" version="1.1" xmlns="http://www.w3.org/2000/svg" p-id="3647" width="200" height="200"><path d="M512 56.879989a295.779942 295.779942 0 0 1 294.641942 295.779942v5.118999a25.026995 25.026995 0 0 0 3.697 14.788997 121.439976 121.439976 0 0 1 19.339996 64.274988 97.549981 97.549981 0 0 1 0 15.926997 25.311995 25.311995 0 0 0 6.824999 21.898995 280.136945 280.136945 0 0 1 68.256986 109.779979c28.439994 87.310983 17.632997 168.080967-8.247998 176.897965a16.779997 16.779997 0 0 1-5.403999 0 54.604989 54.604989 0 0 1-34.127993-22.467995 25.026995 25.026995 0 0 0-19.339997-9.099999h-2.843999a25.311995 25.311995 0 0 0-19.907996 13.365998 326.209936 326.209936 0 0 1-31.567994 48.34899 25.311995 25.311995 0 0 0 10.237998 38.962993c35.549993 14.788997 56.879989 36.119993 56.879989 58.586988 0 42.375992-70.530986 76.788985-156.989969 76.788985A220.696957 220.696957 0 0 1 557.219991 926.869819a25.595995 25.595995 0 0 0-16.779997-6.256999h-52.613989a24.742995 24.742995 0 0 0-16.495997 6.256999 220.696957 220.696957 0 0 1-138.503973 40.099992c-85.319983 0-156.989969-34.411993-156.989969-76.787985 0-22.467996 20.476996-44.082991 56.879989-58.586988a25.311995 25.311995 0 0 0 10.238998-38.963993 327.916936 327.916936 0 0 1-31.568994-48.34799 25.311995 25.311995 0 0 0-19.907996-13.366998h-2.844a25.311995 25.311995 0 0 0-19.623996 9.099998 54.320989 54.320989 0 0 1-33.843993 22.752996 16.779997 16.779997 0 0 1-5.687999 0c-26.164995-8.816998-35.549993-89.586983-8.247999-176.898965a280.989945 280.989945 0 0 1 68.825987-110.632979 25.311995 25.311995 0 0 0 6.824999-21.613996 98.119981 98.119981 0 0 1 0-15.357997 121.439976 121.439976 0 0 1 18.770996-63.705987 25.311995 25.311995 0 0 0 3.696999-14.789997v-5.686999A295.779942 295.779942 0 0 1 512 56.879989M512 0a352.090931 352.090931 0 0 0-350.668932 352.374931 174.622966 174.622966 0 0 0-22.182995 85.320984v8.531998a331.613935 331.613935 0 0 0-71.953986 122.577976c-31.853994 101.81598-28.439994 222.971956 44.081991 247.145952a72.522986 72.522986 0 0 0 23.605996 3.981999 77.072985 77.072985 0 0 0 17.632996-1.99 102.38498 102.38498 0 0 0-32.990993 72.805986c0 76.219985 89.870982 133.100974 213.301958 133.100974a286.677944 286.677944 0 0 0 162.678968-44.366991h32.705994a286.677944 286.677944 0 0 0 162.678968 44.366991c123.429976 0 213.301958-56.879989 213.301958-133.099974A102.38498 102.38498 0 0 0 871.19993 817.08984a76.219985 76.219985 0 0 0 18.201996 2.275 72.806986 72.806986 0 0 0 23.319996-3.696999c71.385986-24.173995 75.936985-145.329972 44.082991-247.145952a330.759935 330.759935 0 0 0-71.384986-121.724976v-9.384998a174.907966 174.907966 0 0 0-22.751995-85.320984A352.090931 352.090931 0 0 0 512 0z" p-id="3648"></path></svg>