<svg t="1606711368329" class="icon" viewBox="0 0 1237 1024" version="1.1" xmlns="http://www.w3.org/2000/svg" p-id="5802" width="200" height="200"><path d="M1216.853333 610.346667a268.885333 268.885333 0 0 0-32.938666-93.824 303.274667 303.274667 0 0 0-100.864-106.666667 397.952 397.952 0 0 0-106.666667-48.896 425.984 425.984 0 0 0-91.008-15.573333c-7.808-0.426667-11.093333-2.645333-11.861333-10.24a321.706667 321.706667 0 0 0-24.405334-89.216c-24.234667-57.173333-61.610667-104.362667-109.141333-143.317334a430.933333 430.933333 0 0 0-117.12-68.693333A482.133333 482.133333 0 0 0 506.453333 3.968c-12.8-1.578667-25.813333-2.176-38.613333-3.925333h-56.32c-13.269333 1.706667-26.709333 2.218667-40.192 3.925333-40.789333 5.504-80.213333 16.042667-118.528 31.146667a426.666667 426.666667 0 0 0-120.234667 70.997333C91.178667 141.098667 55.466667 181.162667 32.213333 231.168a346.752 346.752 0 0 0-29.866666 99.754667c-0.768 5.973333-0.298667 11.946667-2.346667 17.792v59.733333l3.925333 27.776c9.045333 64.426667 39.552 117.845333 83.797334 164.224 21.76 22.784 45.824 43.221333 70.4 63.018667 4.693333 3.754667 6.058667 7.253333 2.773333 13.226666-9.514667 17.066667-16.213333 35.498667-23.466667 53.717334-6.698667 17.109333-14.08 34.261333-12.970666 53.418666 0.469333 9.6 4.096 16.512 11.904 21.546667 13.738667 8.96 27.818667 8.149333 41.898666 0.768a2368.042667 2368.042667 0 0 0 116.949334-65.536c3.157333-1.877333 5.973333-3.626667 10.197333-2.176 36.096 11.946667 73.813333 13.482667 111.36 14.933333 17.493333 0.597333 34.816-1.28 52.181333-1.92a399.018667 399.018667 0 0 0 49.408-5.162666c7.68-1.28 11.093333 0 14.08 7.253333 20.821333 50.090667 53.802667 90.624 96 123.776a360.064 360.064 0 0 0 96.512 53.290667 372.608 372.608 0 0 0 118.357334 23.722666c18.773333 0.64 37.546667-0.170667 56.32 0.170667a201.386667 201.386667 0 0 0 67.541333-9.429333c2.517333-0.810667 4.992-1.28 7.509333 0.128 20.48 11.818667 42.538667 20.608 62.848 32.853333 12.501333 7.381333 24.874667 15.232 39.082667 19.328a31.573333 31.573333 0 0 0 40.661333-30.293333c0.170667-10.24-2.816-19.498667-6.229333-28.8-6.570667-18.218667-16.597333-34.858667-23.936-52.608-1.706667-4.266667-1.578667-6.784 2.346667-9.770667 25.344-19.925333 50.346667-40.234667 71.466666-65.066667a233.002667 233.002667 0 0 0 41.898667-70.058666 253.312 253.312 0 0 0 14.848-70.869334c1.877333-20.266667 2.218667-40.106667-0.768-59.562666z m-674.858666-79.829334c-9.685333 13.824-11.093333 30.464-16.725334 45.738667-11.904 32.213333-6.570667 65.536-7.850666 98.517333-0.128 3.626667 3.456 7.552 0.341333 10.368a23.978667 23.978667 0 0 1-14.250667 6.912c-34.56 4.693333-69.12 8.021333-103.978666 6.272-28.757333-1.408-57.216-5.162667-84.48-15.530666-14.933333-5.674667-29.013333 0.768-42.666667 7.082666-20.608 9.557333-40.618667 20.266667-61.866667 31.744 4.48-11.52 9.045333-21.845333 12.928-32.554666 4.565333-12.714667 9.856-25.301333 5.973334-39.424a24.832 24.832 0 0 0-8.618667-13.653334 917.973333 917.973333 0 0 1-73.344-61.610666c-40.661333-38.698667-71.125333-83.456-80.682667-140.373334a373.333333 373.333333 0 0 1-5.973333-64.426666c0.170667-34.56 8.32-67.541333 22.4-99.114667a310.698667 310.698667 0 0 1 78.037333-106.410667 373.461333 373.461333 0 0 1 111.488-67.584 452.48 452.48 0 0 1 112.896-28.288 320 320 0 0 1 48.938667-3.114666c58.794667 1.408 116.053333 11.008 170.453333 34.56 36.736 15.872 71.125333 35.669333 100.992 62.549333 27.221333 24.32 51.157333 51.84 69.12 84.224a300.373333 300.373333 0 0 1 33.322667 96.170667c1.578667 8.789333 0.170667 10.538667-8.448 11.946666-17.066667 2.986667-34.389333 5.504-51.114667 9.6-43.818667 10.965333-84.138667 29.056-118.698666 59.050667-16.128 13.994667-31.573333 28.928-45.525334 44.970667a169.642667 169.642667 0 0 0-16.554666 23.424c-8.448 13.354667-17.066667 26.24-26.112 38.954666z m601.088 192a178.773333 178.773333 0 0 1-39.68 64c-20.352 21.674667-42.410667 41.301333-65.706667 59.861334-18.133333 14.464-18.773333 29.226667-9.685333 54.186666 0.938667 2.389333 2.986667 4.437333 1.877333 7.722667-13.013333-5.205333-24.405333-13.525333-37.546667-18.688a59.392 59.392 0 0 0-38.954666-2.218667 235.946667 235.946667 0 0 1-62.848 9.429334c-39.68 0.469333-78.805333-1.578667-117.290667-12.714667-40.96-11.776-78.506667-30.165333-111.36-57.514667-29.866667-24.661333-53.930667-54.058667-70.485333-89.429333a165.504 165.504 0 0 1-16.725334-72.277333c0-9.429333 0.128-18.858667 0-28.288a97.109333 97.109333 0 0 1 4.992-32.682667c6.741333-20.906667 16.128-40.234667 25.813334-59.733333 13.44-27.306667 34.688-47.146667 58.453333-64.853334 6.101333-4.437333 11.605333-9.6 17.706667-14.165333 10.453333-8.021333 21.077333-15.402667 33.621333-20.437333 12.672-5.205333 24.832-11.776 38.144-15.872a382.293333 382.293333 0 0 1 82.858667-16.810667 336.469333 336.469333 0 0 1 166.826666 28.586667 263.168 263.168 0 0 1 117.76 101.205333c16.896 26.581333 27.221333 56.106667 30.037334 88.021333 3.157333 31.402667 2.688 62.506667-7.808 92.714667z" fill="#000000" p-id="5803"></path><path d="M285.994667 327.168c-27.178667 1.578667-51.925333-16.810667-58.624-36.608-6.4-19.2-0.768-38.656 15.018666-51.2 25.301333-19.968 71.594667-18.730667 94.293334 4.522667 19.541333 19.968 17.194667 45.397333-2.048 64-13.269333 12.842667-29.866667 20.565333-48.64 19.285333z m307.754666 0.298667c-18.005333 1.28-35.2-8.32-47.872-25.130667-13.269333-17.578667-14.378667-41.301333 7.381334-61.610667 24.064-22.442667 78.933333-20.736 98.176 11.008 9.557333 15.573333 9.088 32.085333 0.170666 47.488-12.032 20.394667-30.976 28.245333-57.856 28.245334z m444.117334 261.504c-1.109333 17.450667-8.618667 30.634667-24.576 38.656-21.589333 10.666667-47.232 6.912-63.146667-9.6a37.034667 37.034667 0 0 1 3.882667-55.125334c24.234667-18.858667 60.032-14.165333 77.568 8.149334a26.965333 26.965333 0 0 1 6.272 17.92zM738.986667 633.6c-12.032-0.768-26.752-4.394667-36.437334-16.981333-13.312-17.28-10.794667-40.704 8.917334-55.637334 22.954667-17.408 60.672-11.434667 75.221333 12.288 9.813333 16 5.930667 37.077333-8.96 48.554667-9.813333 7.552-22.784 11.946667-38.741333 11.776z" fill="#000000" p-id="5804"></path></svg>